HIERARCHY
ROOT joint_Root
{
	OFFSET 0.0 0.0 0.0
	CHANNELS 6 Xposition Yposition Zposition Zrotation Xrotation Yrotation 
	JOINT Hips
	{
		OFFSET -0.726466 93.3139 -2.00062
		CHANNELS 6 Xposition Yposition Zposition Zrotation Xrotation Yrotation 
		JOINT Spine
		{
			OFFSET 15.7357 0.0 0.0
			CHANNELS 6 Xposition Yposition Zposition Zrotation Xrotation Yrotation 
			JOINT Chest
			{
				OFFSET 8.98455 -0.406207 0.0
				CHANNELS 6 Xposition Yposition Zposition Zrotation Xrotation Yrotation 
				JOINT Neck
				{
					OFFSET 16.3773 0.0 0.0
					CHANNELS 6 Xposition Yposition Zposition Zrotation Xrotation Yrotation 
					JOINT Head
					{
						OFFSET 6.45672 0.0 0.0
						CHANNELS 6 Xposition Yposition Zposition Zrotation Xrotation Yrotation 
						End Site
						{
							OFFSET 0.0 0.0 0.0
						}
					}
				}
				JOINT Shoulder_L
				{
					OFFSET 12.9942 -0.242716 4.98039
					CHANNELS 6 Xposition Yposition Zposition Zrotation Xrotation Yrotation 
					JOINT UpperArm_L
					{
						OFFSET 5.34809 0.0 0.0
						CHANNELS 6 Xposition Yposition Zposition Zrotation Xrotation Yrotation 
						JOINT LowerArm_L
						{
							OFFSET 24.3286 1.87007e-05 0.0
							CHANNELS 6 Xposition Yposition Zposition Zrotation Xrotation Yrotation 
							JOINT Hand_L
							{
								OFFSET 22.2916 0.0 0.0
								CHANNELS 6 Xposition Yposition Zposition Zrotation Xrotation Yrotation 
								End Site
								{
									OFFSET 0.0 0.0 0.0
								}
							}
						}
					}
				}
				JOINT Shoulder_R
				{
					OFFSET 12.9945 -0.242716 -4.98039
					CHANNELS 6 Xposition Yposition Zposition Zrotation Xrotation Yrotation 
					JOINT UpperArm_R
					{
						OFFSET -5.34813 0.0 0.0
						CHANNELS 6 Xposition Yposition Zposition Zrotation Xrotation Yrotation 
						JOINT LowerArm_R
						{
							OFFSET -24.3289 0.000322201 0.0
							CHANNELS 6 Xposition Yposition Zposition Zrotation Xrotation Yrotation 
							JOINT Hand_R
							{
								OFFSET -22.2915 -0.000108084 0.0
								CHANNELS 6 Xposition Yposition Zposition Zrotation Xrotation Yrotation 
								End Site
								{
									OFFSET 0.0 0.0 0.0
								}
							}
						}
					}
				}
			}
		}
		JOINT UpperLeg_L
		{
			OFFSET -2.19248 -6.46944 0.0
			CHANNELS 6 Xposition Yposition Zposition Zrotation Xrotation Yrotation 
			JOINT LowerLeg_L
			{
				OFFSET 39.0811 0.0 -1.23785e-05
				CHANNELS 6 Xposition Yposition Zposition Zrotation Xrotation Yrotation 
				JOINT Foot_L
				{
					OFFSET 40.9854 0.0 -1.26872e-05
					CHANNELS 6 Xposition Yposition Zposition Zrotation Xrotation Yrotation 
					JOINT Toes_L
					{
						OFFSET 11.7543 0.0 0.0
						CHANNELS 6 Xposition Yposition Zposition Zrotation Xrotation Yrotation 
						End Site
						{
							OFFSET 0.0 0.0 0.0
						}
					}
				}
			}
		}
		JOINT UpperLeg_R
		{
			OFFSET -2.19251 6.46944 0.0
			CHANNELS 6 Xposition Yposition Zposition Zrotation Xrotation Yrotation 
			JOINT LowerLeg_R
			{
				OFFSET -39.0811 -0.00228153 -0.0401928
				CHANNELS 6 Xposition Yposition Zposition Zrotation Xrotation Yrotation 
				JOINT Foot_R
				{
					OFFSET -40.9854 0.0 0.0
					CHANNELS 6 Xposition Yposition Zposition Zrotation Xrotation Yrotation 
					JOINT Toes_R
					{
						OFFSET -11.7543 0.0 0.0
						CHANNELS 6 Xposition Yposition Zposition Zrotation Xrotation Yrotation 
						End Site
						{
							OFFSET 0.0 0.0 0.0
						}
					}
				}
			}
		}
	}
}
MOTION
Frames:	9
Frame Time:	0.0333333
0.000000 0.000000 0.000000 0.000000 0.000000 -0.000000 -1.475110 92.338900 -1.417850 87.613500 -0.398269 1.585450 15.735700 0.000005 -0.000001 82.557600 88.113600 -81.861200 8.984550 -0.406207 -0.000000 -4.021400 -0.559943 1.373770 16.377300 -0.000001 -0.000001 -6.564180 -3.428990 1.655410 6.456720 -0.000001 -0.000000 -4.046730 -2.521160 -1.372750 12.994200 -0.242716 4.980390 -85.130800 -11.170900 -66.263900 5.348090 -0.000007 -0.000001 -61.113700 -53.586600 -98.445600 24.328600 0.000019 0.000005 8.169990 4.327950 -62.271600 22.291600 -0.000001 0.000005 23.390200 5.600070 -11.346300 12.994500 -0.242716 -4.980390 92.691600 -6.124760 -66.220100 -5.348130 -0.000001 -0.000004 -51.250100 -52.224100 -107.322000 -24.328900 0.000322 -0.000009 6.287900 5.687030 -48.039400 -22.291500 -0.000108 -0.000004 29.525900 5.568310 -9.602540 -2.192480 -6.469440 -0.000000 -169.190000 -14.781400 -2.915280 39.081100 -0.000007 -0.000012 -0.143968 0.418425 18.987000 40.985400 -0.000006 -0.000013 -6.106320 3.892340 -62.787000 11.754300 -0.000000 0.000003 -0.000032 -0.000383 -16.592500 -2.192510 6.469440 -0.000001 176.222000 19.782500 178.056000 -39.081100 -0.002282 -0.040193 0.038934 -0.106800 18.439900 -40.985400 0.000008 0.000006 0.007303 1.042370 -63.208500 -11.754300 -0.000006 -0.000006 -0.007542 -0.084251 -20.003400
0.000000 0.000000 0.000000 0.000000 0.000000 -0.000000 -1.463040 92.335300 -1.404260 87.627400 -0.394126 1.593910 15.735700 0.000005 -0.000001 82.527100 88.098600 -81.844300 8.984550 -0.406207 -0.000000 -3.991920 -0.564277 1.346710 16.377300 -0.000001 -0.000001 -6.474050 -3.433940 1.655230 6.456720 -0.000001 -0.000000 -3.951840 -2.516890 -1.345260 12.994200 -0.242716 4.980390 -85.152600 -11.103300 -66.232700 5.348090 -0.000007 -0.000001 -60.861500 -53.646000 -98.106600 24.328600 0.000019 0.000005 8.331390 4.417740 -62.256100 22.291600 -0.000001 0.000005 23.403100 5.599330 -11.302300 12.994500 -0.242716 -4.980390 92.667900 -6.041670 -66.119500 -5.348130 -0.000001 -0.000004 -50.873400 -52.364000 -106.879000 -24.328900 0.000322 -0.000009 6.277210 5.672420 -48.063600 -22.291500 -0.000108 -0.000004 29.422100 5.566760 -9.523890 -2.192480 -6.469440 -0.000000 -169.209000 -14.764800 -2.908140 39.081100 -0.000007 -0.000012 -0.144793 0.420370 19.006100 40.985400 -0.000006 -0.000013 -6.102660 3.873830 -62.808600 11.754300 -0.000000 0.000003 -0.000029 -0.000356 -16.591500 -2.192510 6.469440 -0.000001 176.196000 19.804100 178.066000 -39.081100 -0.002282 -0.040193 0.038912 -0.106613 18.459100 -40.985400 0.000008 0.000006 0.045696 1.035320 -63.242200 -11.754300 -0.000006 -0.000006 -0.007247 -0.081773 -19.902300
0.000000 0.000000 0.000000 0.000000 0.000000 -0.000000 -1.440190 92.323900 -1.393570 87.647300 -0.420137 1.635650 15.735700 0.000005 -0.000001 82.580600 88.069500 -81.912800 8.984550 -0.406207 -0.000000 -3.933730 -0.566413 1.316880 16.377300 -0.000001 -0.000001 -6.321790 -3.435360 1.669340 6.456720 -0.000001 -0.000000 -3.908020 -2.515060 -1.320690 12.994200 -0.242716 4.980390 -85.161800 -11.058200 -66.188100 5.348090 -0.000007 -0.000001 -60.704300 -53.736400 -97.743200 24.328600 0.000019 0.000005 8.324850 4.404880 -62.305900 22.291600 -0.000001 0.000005 23.218400 5.597770 -11.210200 12.994500 -0.242716 -4.980390 92.629700 -5.929410 -66.029700 -5.348130 -0.000001 -0.000004 -50.618800 -52.454300 -106.555000 -24.328900 0.000322 -0.000009 6.237600 5.647430 -48.007200 -22.291500 -0.000108 -0.000004 29.244600 5.563460 -9.357920 -2.192480 -6.469440 -0.000000 -169.232000 -14.761500 -2.892810 39.081100 -0.000007 -0.000012 -0.145697 0.420846 19.096000 40.985400 -0.000006 -0.000013 -6.087550 3.857860 -62.873300 11.754300 -0.000000 0.000003 -0.000027 -0.000332 -16.590500 -2.192510 6.469440 -0.000001 176.133000 19.773300 178.112000 -39.081100 -0.002282 -0.040193 0.039146 -0.107144 18.486700 -40.985400 0.000008 0.000006 -0.023954 1.085050 -63.296800 -11.754300 -0.000006 -0.000006 -0.007365 -0.082763 -19.942700
0.000000 0.000000 0.000000 0.000000 0.000000 -0.000000 -1.427880 92.326400 -1.398840 87.630900 -0.451398 1.638960 15.735700 0.000005 -0.000001 82.437300 88.052700 -81.767000 8.984550 -0.406207 -0.000000 -3.901720 -0.580458 1.321460 16.377300 -0.000001 -0.000001 -6.181490 -3.426710 1.677490 6.456720 -0.000001 -0.000000 -3.777290 -2.486770 -1.315760 12.994200 -0.242716 4.980390 -85.167900 -11.038700 -66.178200 5.348090 -0.000007 -0.000001 -60.461200 -53.912000 -97.154600 24.328600 0.000019 0.000005 8.177550 4.309340 -62.395000 22.291600 -0.000001 0.000005 23.078600 5.598060 -11.226300 12.994500 -0.242716 -4.980390 92.612100 -5.873540 -65.972100 -5.348130 -0.000001 -0.000004 -50.524200 -52.517200 -106.235000 -24.328900 0.000322 -0.000009 6.161210 5.577210 -48.008800 -22.291500 -0.000108 -0.000004 28.985100 5.564970 -9.433520 -2.192480 -6.469440 -0.000000 -169.223000 -14.777300 -2.890660 39.081100 -0.000007 -0.000012 -0.146248 0.422259 19.103600 40.985400 -0.000006 -0.000013 -6.083850 3.831080 -62.877700 11.754300 -0.000000 0.000003 -0.000030 -0.000362 -16.591700 -2.192510 6.469440 -0.000001 176.136000 19.795900 178.110000 -39.081100 -0.002282 -0.040193 0.038210 -0.104427 18.472700 -40.985400 0.000008 0.000006 -0.026981 1.126570 -63.259500 -11.754300 -0.000006 -0.000006 -0.007052 -0.080110 -19.834400
0.000000 0.000000 0.000000 0.000000 0.000000 -0.000000 -1.415650 92.323500 -1.416850 87.631600 -0.528508 1.652490 15.735700 0.000005 -0.000001 82.516400 88.011800 -81.849500 8.984550 -0.406207 -0.000000 -3.819900 -0.584960 1.314770 16.377300 -0.000001 -0.000001 -6.063110 -3.396150 1.696260 6.456720 -0.000001 -0.000000 -3.686090 -2.425020 -1.303580 12.994200 -0.242716 4.980390 -85.180900 -10.951900 -66.070100 5.348090 -0.000007 -0.000001 -60.262400 -54.152600 -96.607600 24.328600 0.000019 0.000005 8.046650 4.215160 -62.529000 22.291600 -0.000001 0.000005 22.818200 5.597060 -11.167400 12.994500 -0.242716 -4.980390 92.568500 -5.755560 -65.900500 -5.348130 -0.000001 -0.000004 -50.143600 -52.687100 -105.690000 -24.328900 0.000322 -0.000009 6.265900 5.658720 -48.080500 -22.291500 -0.000108 -0.000004 28.944300 5.563000 -9.335660 -2.192480 -6.469440 -0.000000 -169.226000 -14.824200 -2.891410 39.081100 -0.000007 -0.000012 -0.145823 0.420059 19.144500 40.985400 -0.000006 -0.000013 -6.076950 3.815560 -62.895200 11.754300 -0.000000 0.000003 -0.000025 -0.000305 -16.589500 -2.192510 6.469440 -0.000001 176.141000 19.729200 178.080000 -39.081100 -0.002282 -0.040193 0.039285 -0.107373 18.516800 -40.985400 0.000008 0.000006 -0.055407 1.105310 -63.259700 -11.754300 -0.000006 -0.000006 -0.007745 -0.085941 -20.072400
0.000000 0.000000 0.000000 0.000000 0.000000 -0.000000 -1.401690 92.332100 -1.445940 87.630900 -0.615835 1.631840 15.735700 0.000005 -0.000001 82.474600 87.984700 -81.799700 8.984550 -0.406207 -0.000000 -3.766380 -0.595443 1.330800 16.377300 -0.000001 -0.000001 -5.917970 -3.346950 1.682170 6.456720 -0.000001 -0.000000 -3.599690 -2.374700 -1.293560 12.994200 -0.242716 4.980390 -85.205900 -10.844100 -65.973400 5.348090 -0.000007 -0.000001 -59.999800 -54.455500 -95.818700 24.328600 0.000019 0.000005 7.841330 4.066640 -62.754100 22.291600 -0.000001 0.000005 22.351700 5.598000 -11.223400 12.994500 -0.242716 -4.980390 92.540900 -5.671680 -65.818700 -5.348130 -0.000001 -0.000004 -49.748400 -52.855600 -105.000000 -24.328900 0.000322 -0.000009 6.188370 5.556380 -48.241400 -22.291500 -0.000108 -0.000004 28.716600 5.561620 -9.267020 -2.192480 -6.469440 -0.000000 -169.246000 -14.870800 -2.888950 39.081100 -0.000007 -0.000012 -0.146214 0.422192 19.102200 40.985400 -0.000006 -0.000013 -6.069310 3.767380 -62.870500 11.754300 -0.000000 0.000003 -0.000028 -0.000338 -16.590800 -2.192510 6.469440 -0.000001 176.144000 19.662200 178.051000 -39.081100 -0.002282 -0.040193 0.038727 -0.106028 18.464100 -40.985400 0.000008 0.000006 -0.009435 1.142290 -63.208700 -11.754300 -0.000006 -0.000006 -0.007297 -0.082192 -19.919300
0.000000 0.000000 0.000000 0.000000 0.000000 -0.000000 -1.384040 92.327200 -1.474240 87.634800 -0.702233 1.599970 15.735700 0.000005 -0.000001 82.843400 87.957300 -82.165900 8.984550 -0.406207 -0.000000 -3.708850 -0.576464 1.336770 16.377300 -0.000001 -0.000001 -5.706630 -3.326440 1.723670 6.456720 -0.000001 -0.000000 -3.593070 -2.326580 -1.326350 12.994200 -0.242716 4.980390 -85.217100 -10.779800 -65.898200 5.348090 -0.000007 -0.000001 -59.671800 -54.793400 -94.747900 24.328600 0.000019 0.000005 7.564460 3.863730 -63.096100 22.291600 -0.000001 0.000005 22.127300 5.598750 -11.267700 12.994500 -0.242716 -4.980390 92.503300 -5.550520 -65.677000 -5.348130 -0.000001 -0.000004 -49.055700 -53.081700 -103.963000 -24.328900 0.000322 -0.000009 5.843400 5.213800 -48.402900 -22.291500 -0.000108 -0.000004 28.611300 5.561250 -9.249010 -2.192480 -6.469440 -0.000000 -169.284000 -14.858200 -2.965540 39.081100 -0.000007 -0.000012 -0.145719 0.418926 19.179900 40.985400 -0.000006 -0.000013 -6.069720 3.646800 -62.906200 11.754300 -0.000000 0.000003 -0.000025 -0.000304 -16.589400 -2.192510 6.469440 -0.000001 176.155000 19.555700 177.988000 -39.081100 -0.002282 -0.040193 0.039320 -0.107859 18.455500 -40.985400 0.000008 0.000006 -0.011615 1.139020 -63.232600 -11.754300 -0.000006 -0.000006 -0.007232 -0.081645 -19.897000
0.000000 0.000000 0.000000 0.000000 0.000000 -0.000000 -1.362870 92.335900 -1.515740 87.622400 -0.798463 1.581580 15.735700 0.000005 -0.000001 83.175200 87.926300 -82.496800 8.984550 -0.406207 -0.000000 -3.644530 -0.560077 1.339510 16.377300 -0.000001 -0.000001 -5.519110 -3.316320 1.759110 6.456720 -0.000001 -0.000000 -3.481920 -2.334160 -1.253980 12.994200 -0.242716 4.980390 -85.216500 -10.737300 -65.812000 5.348090 -0.000007 -0.000001 -59.403200 -55.128600 -93.577500 24.328600 0.000019 0.000005 7.005950 3.524080 -63.426400 22.291600 -0.000001 0.000005 21.839400 5.600200 -11.354700 12.994500 -0.242716 -4.980390 92.445800 -5.398500 -65.581500 -5.348130 -0.000001 -0.000004 -47.958400 -53.402700 -102.400000 -24.328900 0.000322 -0.000009 5.784090 5.104390 -48.712100 -22.291500 -0.000108 -0.000004 28.512600 5.557560 -9.068120 -2.192480 -6.469440 -0.000000 -169.288000 -14.952200 -2.972560 39.081100 -0.000007 -0.000012 -0.146337 0.421303 19.154500 40.985400 -0.000006 -0.000013 -6.053020 3.642340 -62.880200 11.754300 -0.000000 0.000003 -0.000030 -0.000357 -16.591500 -2.192510 6.469440 -0.000001 176.169000 19.518500 177.937000 -39.081100 -0.002282 -0.040193 0.038696 -0.106174 18.425400 -40.985400 0.000008 0.000006 -0.036744 1.194830 -63.148900 -11.754300 -0.000006 -0.000006 -0.007331 -0.082484 -19.931300
0.000000 0.000000 0.000000 0.000000 0.000000 -0.000000 -1.350280 92.343000 -1.555520 87.625900 -0.881498 1.577970 15.735700 0.000005 -0.000001 83.141100 87.874300 -82.463400 8.984550 -0.406207 -0.000000 -3.541380 -0.574294 1.338060 16.377300 -0.000001 -0.000001 -5.388720 -3.285200 1.780510 6.456720 -0.000001 -0.000000 -3.328470 -2.307070 -1.212610 12.994200 -0.242716 4.980390 -85.223900 -10.661300 -65.694500 5.348090 -0.000007 -0.000001 -59.079500 -55.553100 -92.228000 24.328600 0.000019 0.000005 6.181630 3.056140 -63.792600 22.291600 -0.000001 0.000005 21.229300 5.597140 -11.171500 12.994500 -0.242716 -4.980390 92.363800 -5.201940 -65.520100 -5.348130 -0.000001 -0.000004 -46.711400 -53.785600 -100.623000 -24.328900 0.000322 -0.000009 5.688160 4.965390 -49.016000 -22.291500 -0.000108 -0.000004 28.422000 5.559660 -9.170800 -2.192480 -6.469440 -0.000000 -169.314000 -14.970400 -2.979160 39.081100 -0.000007 -0.000012 -0.144848 0.417511 19.133500 40.985400 -0.000006 -0.000013 -6.044290 3.585950 -62.854800 11.754300 -0.000000 0.000003 -0.000030 -0.000362 -16.591700 -2.192510 6.469440 -0.000001 176.166000 19.489100 177.907000 -39.081100 -0.002282 -0.040193 0.038763 -0.106572 18.393700 -40.985400 0.000008 0.000006 -0.019003 1.253270 -63.100500 -11.754300 -0.000006 -0.000006 -0.007542 -0.084248 -20.003300
